<svg xmlns="http://www.w3.org/2000/svg" width="234.822" height="49.5">
    <defs>
        <style>
            .prefix__a {
                fill: #fff
            }
        </style>
    </defs>
    <path style="fill: #fff"
        d="M66.695 25.184a5.288 5.288 0 00-1.3-3.734 4.931 4.931 0 00-3.647-1.3 7.088 7.088 0 00-5.037 2v16.581a1.476 1.476 0 01-2.953 0V10.16a1.476 1.476 0 012.953 0v8.6a11.8 11.8 0 012.432-.955 8.964 8.964 0 012.605-.347 8.269 8.269 0 013.3.608 8.442 8.442 0 012.518 1.65 8.442 8.442 0 011.65 2.518 9.708 9.708 0 01.608 3.3v13.284a1.476 1.476 0 01-2.953 0V25.184zM76.681 18.844a1.476 1.476 0 012.953 0v19.8a1.476 1.476 0 01-2.953 0zM99.608 38.644a8.83 8.83 0 01-2.432 1.129 8.964 8.964 0 01-2.605.347 8.269 8.269 0 01-3.3-.608 7.381 7.381 0 01-4.168-4.168 9.708 9.708 0 01-.608-3.3V25.27a8.269 8.269 0 01.608-3.3 7.054 7.054 0 011.65-2.518 8.442 8.442 0 012.518-1.65 7.991 7.991 0 013.3-.608 22.243 22.243 0 013.387.261 13.521 13.521 0 013.213.868 2.371 2.371 0 011.042.782 2.075 2.075 0 01.434 1.216v21.1a8.269 8.269 0 01-.608 3.3 7.054 7.054 0 01-1.65 2.518 8.442 8.442 0 01-2.518 1.65 9.708 9.708 0 01-3.3.608 12.785 12.785 0 01-3.126-.347 16.756 16.756 0 01-2.95-.956 1.3 1.3 0 01-.868-1.3 1.483 1.483 0 011.476-1.476 2.209 2.209 0 01.608.174 20.037 20.037 0 002.432.868 8.4 8.4 0 002.518.347 4.706 4.706 0 003.647-1.476 5.512 5.512 0 001.3-3.821v-2.866zm0-17.716a16.359 16.359 0 00-4.95-.782 5.288 5.288 0 00-3.734 1.3 5.009 5.009 0 00-1.3 3.734v7.214a5.288 5.288 0 001.3 3.734 5.009 5.009 0 003.734 1.3 7.077 7.077 0 002.692-.521 5.679 5.679 0 002.258-1.476zM122.1 25.184a5.288 5.288 0 00-1.3-3.734 4.931 4.931 0 00-3.647-1.3 7.088 7.088 0 00-5.037 2v16.581a1.476 1.476 0 01-2.953 0V10.16a1.476 1.476 0 012.953 0v8.6a11.8 11.8 0 012.432-.955 8.964 8.964 0 012.605-.347 8.269 8.269 0 013.3.608 8.442 8.442 0 012.518 1.65 8.443 8.443 0 011.65 2.518 9.708 9.708 0 01.608 3.3v13.284a1.476 1.476 0 01-2.953 0V25.184zM131.653 23.447a7.13 7.13 0 01.434-2.432 5.52 5.52 0 011.216-1.911 5.173 5.173 0 011.824-1.216 6.523 6.523 0 012.258-.434 13.77 13.77 0 013.126.347 1.8 1.8 0 01.868.521 1.306 1.306 0 01.347.955 1.483 1.483 0 01-1.473 1.478.522.522 0 01-.347-.087 3.762 3.762 0 00-.434-.087c-.347-.087-.695-.087-1.042-.174a4.228 4.228 0 00-1.042-.087 2.553 2.553 0 00-1.911.782 3.1 3.1 0 00-.782 2.258v15.371a1.476 1.476 0 01-2.953 0V23.447zM160.137 37.168a2.075 2.075 0 01-.434 1.216 2.371 2.371 0 01-1.042.782 19.291 19.291 0 01-3.213.782 21.417 21.417 0 01-3.387.261c-2.692 0-4.689-.608-6.079-1.911a6.1 6.1 0 01-1.911-4.863 6.348 6.348 0 011.911-4.867 5.8 5.8 0 012.518-1.3 14.26 14.26 0 013.561-.434h4.95v-2.779a3.527 3.527 0 00-1.3-2.953 5.226 5.226 0 00-3.387-.955 8.03 8.03 0 00-2.518.347 12.563 12.563 0 00-2.518 1.129 1.155 1.155 0 01-.695.261 1.384 1.384 0 01-1.042-.347 1.438 1.438 0 01-.434-1.042 1.531 1.531 0 01.782-1.3 11.627 11.627 0 013.213-1.389 14.345 14.345 0 013.3-.434 9.916 9.916 0 012.866.434 7.106 7.106 0 012.432 1.216 5.683 5.683 0 011.65 2.084 6.292 6.292 0 01.608 2.866v13.196zm-3.039-7.555h-4.95a7.789 7.789 0 00-2.692.347 3.436 3.436 0 00-1.563.955 2.476 2.476 0 00-.695 1.216 6.7 6.7 0 00-.174 1.3 8.662 8.662 0 00.174 1.389 3.192 3.192 0 00.695 1.3 3.435 3.435 0 001.563.955 7.789 7.789 0 002.692.347 15.947 15.947 0 004.95-.782zM174.552 40.208a8.269 8.269 0 01-3.3-.608 7.381 7.381 0 01-4.168-4.168 9.708 9.708 0 01-.608-3.3v-6.774a7.477 7.477 0 017.99-7.99 8.964 8.964 0 012.605.347 11.8 11.8 0 012.432.955v-8.6a1.476 1.476 0 012.953 0v27.011a2.075 2.075 0 01-.434 1.216 2.371 2.371 0 01-1.042.782 19.29 19.29 0 01-3.213.782 11.741 11.741 0 01-3.215.347zm-4.95-7.816a5.288 5.288 0 001.3 3.734 4.931 4.931 0 003.647 1.3 16.494 16.494 0 005.037-.782v-14.76a6.464 6.464 0 00-2.345-1.389 9.2 9.2 0 00-2.692-.434 4.931 4.931 0 00-3.647 1.3 5.009 5.009 0 00-1.3 3.734zM189.577 18.844a1.476 1.476 0 012.953 0v19.8a1.476 1.476 0 01-2.953 0zm-111.419-4.69a2.373 2.373 0 01-1.65-.695 2.224 2.224 0 01-.695-1.649 2.541 2.541 0 01.695-1.65 2.224 2.224 0 011.65-.695 2.541 2.541 0 011.65.695 2.224 2.224 0 01.695 1.65 2.373 2.373 0 01-.695 1.65 2.224 2.224 0 01-1.65.694zM212.503 18.844a1.476 1.476 0 012.953 0v18.324a1.994 1.994 0 01-.347 1.216 2.715 2.715 0 01-.955.782 21.629 21.629 0 01-3.213.782 22.243 22.243 0 01-3.387.261 7.536 7.536 0 01-5.818-2.171 8.148 8.148 0 01-2.173-5.82V18.844a1.476 1.476 0 012.953 0v13.548a5.288 5.288 0 001.3 3.734 5.009 5.009 0 003.734 1.3 15.947 15.947 0 004.95-.782zM224.921 28.918a8.45 8.45 0 01-2.692-1.911 5.248 5.248 0 01-1.129-3.647 4.6 4.6 0 01.608-2.432 5.43 5.43 0 011.563-1.911 6.272 6.272 0 012.258-1.216 9.2 9.2 0 012.692-.434 9.6 9.6 0 012.866.347 11.364 11.364 0 012.432.782 1.488 1.488 0 01.955 1.389 1.244 1.244 0 01-.434.955 1.384 1.384 0 01-1.042.347 2.209 2.209 0 01-.608-.174 11.065 11.065 0 00-4.516-.955 6.7 6.7 0 00-1.3.174 3.045 3.045 0 00-1.216.521 2.311 2.311 0 00-.868.955 2.548 2.548 0 00-.347 1.389 2.778 2.778 0 00.695 2 7.686 7.686 0 001.476 1.042l4.082 1.65a8.608 8.608 0 013.213 2.258 5.7 5.7 0 011.216 3.561 6.23 6.23 0 01-.521 2.518 7.007 7.007 0 01-1.476 2.084 6.6 6.6 0 01-2.258 1.389 7.522 7.522 0 01-2.779.521 11.9 11.9 0 01-3.126-.347 14.15 14.15 0 01-2.692-.955 1.34 1.34 0 01-.868-1.389 1.483 1.483 0 011.476-1.476.522.522 0 01.347.087c.087 0 .174.087.347.174a11.716 11.716 0 004.6 1.129 4.173 4.173 0 002.692-.868 2.883 2.883 0 001.216-2.345 3.25 3.25 0 00-.695-2.171A5.781 5.781 0 00229 30.568zM190.879 14.154a2.373 2.373 0 01-1.65-.695 2.224 2.224 0 01-.695-1.65 2.541 2.541 0 01.695-1.65 2.224 2.224 0 011.65-.695 2.54 2.54 0 011.65.695 2.223 2.223 0 01.695 1.65 2.373 2.373 0 01-2.345 2.345z" />
    <g>
        <path style="fill: #fff"
            d="M35.171 43.769a22.662 22.662 0 01-13.721-5.124 26 26 0 0017.282-13.113 23.417 23.417 0 011.824 9.118 29.6 29.6 0 01-.434 4.776l-.434 2.345a14.8 14.8 0 01-2.605 2z" />
        <path style="fill: #fff"
            d="M23.187 47.85a21.7 21.7 0 01-5.732-.782A23.306 23.306 0 010 27.789a11.816 11.816 0 00.608-1.563 5.022 5.022 0 01.434-1.216 20.573 20.573 0 0111.29-11.289 21.3 21.3 0 00-2 9.292c0 11.724 8.771 21.276 20.842 23.447a22.76 22.76 0 01-7.987 1.39z" />
        <path style="fill: #fff"
            d="M.608 18.845a23.194 23.194 0 0114.676-9.553 19.44 19.44 0 014.516-.434 23.639 23.639 0 0120.234 11.724A27.368 27.368 0 0143.769 34.3v1.824a25.339 25.339 0 003.734-12.505A24.023 24.023 0 0023.708 0a23.673 23.673 0 00-19.8 10.595s-2.866 4.429-3.3 8.25z" />
    </g>
</svg>